<svg xmlns="http://www.w3.org/2000/svg" baseProfile="full" version="1.1" width="600px" height="300px" style="fill: none; width: 600px; height: 300px;"><path d="" style="stroke-width: 10; stroke-linecap: round; stroke-linejoin: round; stroke: rgb(204, 204, 204); fill: none;" transform="rotate(240 307.5 157.5)"/><path d="" style="stroke-width: 10; stroke-linecap: round; stroke-linejoin: round; stroke: rgb(153, 153, 153); fill: none;" transform="rotate(120 307.5 157.5)"/><path d="M300,45 L300,45 L255,105 L255,105 L195,120 L195,120 L240,180 L240,180 L225,255 M300,225 L300,225 L225,255 M195,120 A30,135 0 0,0 225,255 M195,120 A105,75 0 0,1 300,45 M225,255 L375,255 M300,195 A30,45 0 0,1 270,150 A30,30 0 0,1 300,120 M300,45 L300,45 L345,105 L345,105 L405,120 L405,120 L360,180 L360,180 L375,255 M300,225 L300,225 L375,255 M405,120 A30,135 0 0,1 375,255 M405,120 A105,75 0 0,0 300,45 M375,255 L225,255 M300,195 A30,45 0 0,0 330,150 A30,30 0 0,0 300,120 " style="stroke-width: 11; stroke-linecap: round; stroke-linejoin: round; stroke: rgb(0, 0, 0); fill: none;" transform="rotate(0 307.5 157.5)"/></svg>